<?xml version="1.0" encoding="utf-8"?>
<!-- Generator: Adobe Illustrator 24.1.0, SVG Export Plug-In . SVG Version: 6.00 Build 0)  -->
<svg version="1.1" id="Layer_1" xmlns="http://www.w3.org/2000/svg" xmlns:xlink="http://www.w3.org/1999/xlink" x="0px" y="0px"
	 viewBox="8 6 29 21" style="enable-background:new 0 0 40 30;" xml:space="preserve">
<style type="text/css">.st0{fill:#ffffff;}</style>
<g class="st0">
	<g>
		<path d="M21.1,15.1c3.1,0.1,5.2,1.8,6.4,4.5c0.3,0.7,0.5,1.4,0.7,2.1c0.8,3.2-1.8,5.8-5,4.9c-1.4-0.4-2.7-0.6-4.1-0.3
			c-0.9,0.2-1.7,0.1-2.6-0.3c-3.3-1.3-4.1-4-2-6.9c1.3-1.7,2.7-3.2,4.9-3.9C20,15.2,20.5,15.1,21.1,15.1z"/>
		<path d="M15.6,15.6c0,1.9-1.6,3.5-3.5,3.5c-1.7,0-3.2-1.4-3.2-2.9c0-2.2,1.6-4,3.6-4C14.2,12.2,15.6,13.8,15.6,15.6z"/>
		<path d="M17.7,13.1c-2,0-3.2-1-3.2-2.8c0-2.6,0.9-3.8,3-3.8c2,0,3.5,1.4,3.5,3.3C21.1,11.9,19.9,13.1,17.7,13.1z"/>
		<path d="M27.8,10.6c0,1.8-1.2,3-3.1,3c-1.6,0-2.9-1.7-2.9-3.7c0-1.7,1.1-2.8,2.8-2.8C26.6,7.1,27.8,8.4,27.8,10.6z"/>
		<path d="M32.5,16c0,1.7-1.1,2.9-2.6,2.8c-1.6-0.1-3-1.5-2.9-3.2c0-1.7,1.1-2.7,2.8-2.7C31.6,13,32.6,14.1,32.5,16z"/>
	</g>
</g>
</svg>
